<?xml version="1.0" encoding="UTF-8" standalone="no"?><svg xmlns:svg="http://www.w3.org/2000/svg" xmlns="http://www.w3.org/2000/svg" xmlns:xlink="http://www.w3.org/1999/xlink" version="1.0" width="50px" height="50px" viewBox="0 0 128 128" xml:space="preserve"><path fill="#4f99ed" fill-opacity="1" d="M64.4 16a49 49 0 0 0-50 48 51 51 0 0 0 50 52.2 53 53 0 0 0 54-52c-.7-48-45-55.7-45-55.7s45.3 3.8 49 55.6c.8 32-24.8 59.5-58 60.2-33 .8-61.4-25.7-62-60C1.3 29.8 28.8.6 64.3 0c0 0 8.5 0 8.7 8.4 0 8-8.6 7.6-8.6 7.6z"><animateTransform attributeName="transform" type="rotate" from="0 64 64" to="360 64 64" dur="800ms" repeatCount="indefinite"></animateTransform></path></svg>